FILE "King of Fighters '98, The - Dream Match Never Ends Soundtrack (1998)(Pony Canyon)(JP)(Disc 1 of 2)[CD-Audio].img" BINARY
  TRACK 01 AUDIO
    ISRC JPPC09801294
    INDEX 01 00:00:00
  TRACK 02 AUDIO
    ISRC JPPC09801295
    INDEX 00 00:47:20
    INDEX 01 00:49:60
  TRACK 03 AUDIO
    ISRC JPPC09801296
    INDEX 00 01:16:27
    INDEX 01 01:19:15
  TRACK 04 AUDIO
    ISRC JPPC09801297
    INDEX 00 01:47:25
    INDEX 01 01:49:70
  TRACK 05 AUDIO
    ISRC JPPC09801298
    INDEX 00 02:18:00
    INDEX 01 02:20:62
  TRACK 06 AUDIO
    ISRC JPPC09801299
    INDEX 00 06:32:07
    INDEX 01 06:33:27
  TRACK 07 AUDIO
    ISRC JPPC09801300
    INDEX 00 06:41:70
    INDEX 01 06:44:07
  TRACK 08 AUDIO
    ISRC JPPC09801301
    INDEX 00 08:50:45
    INDEX 01 08:52:70
  TRACK 09 AUDIO
    ISRC JPPC09801302
    INDEX 00 09:06:12
    INDEX 01 09:08:25
  TRACK 10 AUDIO
    ISRC JPPC09801303
    INDEX 00 12:10:05
    INDEX 01 12:13:47
  TRACK 11 AUDIO
    ISRC JPPC09801304
    INDEX 00 15:05:47
    INDEX 01 15:08:40
  TRACK 12 AUDIO
    ISRC JPPC09801305
    INDEX 00 17:28:72
    INDEX 01 17:31:72
  TRACK 13 AUDIO
    ISRC JPPC09801306
    INDEX 00 21:51:72
    INDEX 01 21:53:57
  TRACK 14 AUDIO
    ISRC JPPC09801307
    INDEX 00 21:59:05
    INDEX 01 22:01:52
  TRACK 15 AUDIO
    ISRC JPPC09801308
    INDEX 00 22:19:45
    INDEX 01 22:22:02
  TRACK 16 AUDIO
    ISRC JPPC09801309
    INDEX 00 25:56:72
    INDEX 01 26:00:07
  TRACK 17 AUDIO
    ISRC JPPC09801310
    INDEX 00 29:30:62
    INDEX 01 29:33:35
  TRACK 18 AUDIO
    ISRC JPPC09801311
    INDEX 00 32:33:72
    INDEX 01 32:36:00
  TRACK 19 AUDIO
    ISRC JPPC09801312
    INDEX 00 32:53:00
    INDEX 01 32:56:02
  TRACK 20 AUDIO
    ISRC JPPC09801313
    INDEX 00 35:39:40
    INDEX 01 35:42:25
  TRACK 21 AUDIO
    ISRC JPPC09801314
    INDEX 00 39:32:72
    INDEX 01 39:36:45
  TRACK 22 AUDIO
    ISRC JPPC09801315
    INDEX 00 42:17:70
    INDEX 01 42:19:72
  TRACK 23 AUDIO
    ISRC JPPC09801316
    INDEX 00 42:49:02
    INDEX 01 42:51:35
  TRACK 24 AUDIO
    ISRC JPPC09801317
    INDEX 00 46:21:17
    INDEX 01 46:24:30
  TRACK 25 AUDIO
    ISRC JPPC09801318
    INDEX 00 46:34:02
    INDEX 01 46:36:62
  TRACK 26 AUDIO
    ISRC JPPC09801319
    INDEX 00 49:48:17
    INDEX 01 49:51:07
  TRACK 27 AUDIO
    ISRC JPPC09801320
    INDEX 00 52:42:05
    INDEX 01 52:45:40
  TRACK 28 AUDIO
    ISRC JPPC09801321
    INDEX 00 55:15:62
    INDEX 01 55:19:20
  TRACK 29 AUDIO
    ISRC JPPC09801322
    INDEX 00 58:44:45
    INDEX 01 58:47:10
  TRACK 30 AUDIO
    ISRC JPPC09801323
    INDEX 00 61:42:57
    INDEX 01 61:45:15
  TRACK 31 AUDIO
    ISRC JPPC09801324
    INDEX 00 64:47:02
    INDEX 01 64:50:25
  TRACK 32 AUDIO
    ISRC JPPC09801325
    INDEX 00 68:15:20
    INDEX 01 68:18:10
